With: Bruce Willis, Matthew Perry and Amanda Peet

Tandarts Nicholas "Oz" Oseransky heeft het moeilijk om het hoofd boven water te houden en bovendien zit zijn huwelijk in het slop. Op een dag krijgt hij een nieuwe buur. Wanneer hij met de man wil gaan kennismaken, ontdekt Nicholas dat die niemand minder is dan Jimmy "The Tulip" Tudeski, een beruchte beroepsmoordenaar. Hij gaat, op aandringen van z'n vrouw, naar Chicago om een maffiabaas hierover te informeren en hiervoor hopelijk een premie op te strijken.

Nick is a struggling dentist in Canada. A new neighbor moves in, and he discovers that it is Jimmy "The Tulip" Teduski. His wife convinces him to go to Chicago and inform the mob boss who wants Jimmy dead. 

------------------ Dutch Friends ------------------
You can find my Friends at: http://www.Film-Test.nl 
------ They got my dutchs subs ---- and more ------

General:

Complete name                    : The Whole Nine Yards\The Whole Nine Yards.avi
Format                           : AVI
Format/Info                      : Audio Video Interleave
File size                        : 1.30 GiB
Duration                         : 1h 34mn
Overall bit rate                 : 1 971 Kbps

Video:

Format                           : MPEG-4 Visual
Format profile                   : Simple@L3
Format settings, BVOP            : No
Format settings, QPel            : No
Format settings, GMC             : No warppoints
Format settings, Matrix          : Default (H.263)
Codec ID                         : XVID
Codec ID/Hint                    : XviD
Duration                         : 1h 34mn
Bit rate                         : 1 576 Kbps
Width                            : 652 pixels
Height                           : 352 pixels
Display aspect ratio             : 1.852
Frame rate                       : 25.000 fps
Color space                      : YUV
Chroma subsampling               : 4:2:0
Bit depth                        : 8 bits
Scan type                        : Progressive
Bits/(Pixel*Frame)               : 0.275
Stream size                      : 1.04 GiB (80%)
Writing library                  : XviD 1.1.2 (UTC 2006-11-01)

Audio:

Format                           : AC-3
Format/Info                      : Audio Coding 3
Mode extension                   : CM (complete main)
Codec ID                         : 2000
Duration                         : 1h 34mn
Bit rate mode                    : Constant
Bit rate                         : 384 Kbps
Channel(s)                       : 6 channels
Channel positions                : Front: L C R, Side: L R, LFE
Sampling rate                    : 48.0 KHz
Bit depth                        : 16 bits
Stream size                      : 260 MiB (19%)
Alignment                        : Aligned on interleaves
Interleave, duration             : 32 ms (0.80 video frame)
Interleave, preload duration     : 32 ms


